<svg width="16" height="16" viewBox="0 0 16 16" fill="none" xmlns="http://www.w3.org/2000/svg">
<path id="Icon" d="M15.2544 14.0683L11.7231 10.5361C12.5243 9.4854 13 8.17325 13 6.75C13 3.29822 10.2018 0.5 6.75 0.5C3.29822 0.5 0.5 3.29822 0.5 6.75C0.5 10.2018 3.29822 13 6.75 13C8.17346 13 9.48577 12.5241 10.5365 11.7228L14.0679 15.2552C14.3949 15.5823 14.9253 15.5814 15.253 15.2537C15.5829 14.9237 15.5813 14.3953 15.2544 14.0683ZM11.3333 6.75C11.3333 9.28131 9.28131 11.3333 6.75 11.3333C4.21869 11.3333 2.16667 9.28131 2.16667 6.75C2.16667 4.21869 4.21869 2.16667 6.75 2.16667C9.28131 2.16667 11.3333 4.21869 11.3333 6.75Z" fill="black"/>
</svg>
